<?xml version="1.0" standalone="no"?>
<!DOCTYPE svg PUBLIC "-//W3C//DTD SVG 20010904//EN"
 "http://www.w3.org/TR/2001/REC-SVG-20010904/DTD/svg10.dtd">
<svg version="1.0" xmlns="http://www.w3.org/2000/svg"
 width="1024.000000pt" height="1024.000000pt" viewBox="0 0 1024.000000 1024.000000"
 preserveAspectRatio="xMidYMid meet">

<g transform="translate(0.000000,1024.000000) scale(0.100000,-0.100000)"
fill="#000000" stroke="none">
<path d="M0 5120 l0 -5120 5120 0 5120 0 0 5120 0 5120 -5120 0 -5120 0 0
-5120z m5578 2558 c16 -40 67 -171 113 -290 46 -122 87 -214 92 -211 6 4 7 1
2 -6 -9 -15 114 -343 125 -336 5 3 6 -5 2 -17 -4 -16 -2 -19 8 -13 9 5 11 4 6
-4 -10 -16 3 -53 16 -45 7 4 8 2 4 -5 -4 -6 -2 -28 4 -47 9 -27 15 -33 21 -23
6 9 7 4 3 -15 -5 -22 -4 -27 6 -21 9 5 11 4 6 -3 -10 -16 85 -263 97 -255 6 3
7 1 3 -6 -10 -16 3 -53 16 -45 7 5 8 2 3 -5 -10 -17 44 -163 58 -154 6 3 7 1
3 -6 -10 -16 13 -83 26 -75 7 4 8 2 4 -5 -10 -16 84 -262 97 -254 6 4 7 1 2
-6 -8 -14 255 -712 266 -705 4 2 11 -1 15 -7 4 -8 3 -9 -4 -5 -16 10 -15 2 9
-65 12 -32 25 -56 30 -53 5 3 6 -1 4 -8 -3 -8 33 -115 80 -238 48 -124 105
-274 127 -333 29 -78 44 -105 50 -95 7 9 8 8 4 -6 -8 -25 3 -58 16 -50 7 5 8
2 3 -5 -10 -17 55 -182 68 -174 6 4 7 1 2 -6 -10 -17 104 -313 118 -304 6 4 7
1 2 -6 -10 -17 55 -182 68 -174 6 3 7 1 3 -6 -10 -16 3 -53 16 -45 7 5 8 2 4
-5 -10 -15 33 -133 45 -125 5 3 6 -1 4 -9 -3 -7 35 -116 84 -243 l90 -229
-467 -3 c-257 -1 -472 0 -478 2 -6 2 -82 200 -169 440 -87 240 -160 434 -162
433 -2 -2 4 -23 12 -47 23 -64 12 -59 -15 8 -50 123 -83 186 -100 189 -3 1
-17 6 -31 11 -14 6 -54 13 -90 15 -114 10 -115 11 -24 17 50 3 -259 6 -685 7
-426 0 -759 -3 -740 -6 51 -9 14 -18 -91 -20 -100 -3 -154 -13 -179 -36 -10
-9 -39 -72 -66 -140 -26 -69 -49 -123 -51 -121 -2 1 4 22 12 46 8 24 13 45 11
47 -8 8 -37 -97 -30 -108 4 -7 3 -9 -3 -6 -13 8 -98 -217 -88 -234 5 -7 4 -10
-2 -6 -14 9 -55 -105 -47 -129 4 -14 3 -16 -4 -5 -7 10 -12 5 -22 -23 -6 -19
-8 -41 -4 -47 4 -7 3 -9 -3 -6 -5 3 -34 -59 -64 -139 l-54 -144 -468 0 -468 0
7 23 c7 24 73 195 268 700 70 180 124 332 120 339 -4 6 -3 8 2 5 13 -8 68 138
58 154 -4 7 -3 10 3 6 13 -8 187 438 177 454 -4 7 -3 9 3 6 13 -8 237 569 227
584 -4 7 -3 9 3 6 13 -8 75 156 67 179 -4 12 -3 15 3 7 11 -15 88 181 77 198
-4 7 -3 9 3 6 14 -9 175 414 167 439 -4 13 -3 15 3 6 13 -17 74 145 67 175 -3
11 -1 24 4 27 6 4 8 -2 5 -14 -3 -11 -3 -20 -1 -20 11 0 49 121 42 132 -4 6
-3 8 3 5 14 -9 88 187 77 204 -4 7 -3 10 4 5 13 -8 26 29 16 45 -4 7 -3 9 4 5
13 -8 26 29 16 45 -4 7 -3 9 3 6 13 -8 57 109 47 125 -4 6 -3 8 3 5 5 -3 61
127 128 301 65 169 149 387 187 485 l69 177 429 0 428 0 30 -72z m502 -1263
c0 -5 -5 -3 -10 5 -5 8 -10 20 -10 25 0 6 5 3 10 -5 5 -8 10 -19 10 -25z m344
-905 c3 -14 -3 -7 -13 15 -11 22 -20 45 -20 50 0 15 26 -37 33 -65z m126 -325
c0 -5 -5 -3 -10 5 -5 8 -10 20 -10 25 0 6 5 3 10 -5 5 -8 10 -19 10 -25z m90
-240 c0 -5 -5 -3 -10 5 -5 8 -10 20 -10 25 0 6 5 3 10 -5 5 -8 10 -19 10 -25z
m50 -130 c0 -5 -5 -3 -10 5 -5 8 -10 20 -10 25 0 6 5 3 10 -5 5 -8 10 -19 10
-25z m110 -290 c0 -5 -5 -3 -10 5 -5 8 -10 20 -10 25 0 6 5 3 10 -5 5 -8 10
-19 10 -25z m220 -570 c0 -5 -5 -3 -10 5 -5 8 -10 20 -10 25 0 6 5 3 10 -5 5
-8 10 -19 10 -25z m20 -50 c0 -5 -5 -3 -10 5 -5 8 -10 20 -10 25 0 6 5 3 10
-5 5 -8 10 -19 10 -25z m-856 -286 c3 -13 -3 -6 -13 16 -11 22 -20 47 -20 55
0 17 23 -34 33 -71z m-2143 -6 c-12 -20 -14 -14 -5 12 4 9 9 14 11 11 3 -2 0
-13 -6 -23z m2183 -103 c5 -17 4 -20 -2 -10 -5 8 -13 26 -16 40 -5 17 -4 20 2
10 5 -8 13 -26 16 -40z m26 -65 c0 -5 -5 -3 -10 5 -5 8 -10 20 -10 25 0 6 5 3
10 -5 5 -8 10 -19 10 -25z"/>
<path d="M5166 6430 c3 -14 11 -32 16 -40 6 -10 7 -7 2 10 -3 14 -11 32 -16
40 -6 10 -7 7 -2 -10z"/>
<path d="M5046 6415 c-9 -26 -7 -32 5 -12 6 10 9 21 6 23 -2 3 -7 -2 -11 -11z"/>
<path d="M5072 6383 c-26 -39 -52 -99 -107 -246 -26 -70 -49 -126 -51 -124 -2
2 16 59 41 127 25 67 44 124 42 126 -3 4 -432 -1159 -445 -1206 -3 -13 -3 -13
7 0 16 23 13 -1 -8 -63 -24 -70 -21 -131 8 -160 21 -22 24 -22 529 -25 532 -3
547 -2 577 42 26 36 16 96 -45 276 -32 96 -58 176 -56 177 2 2 27 -62 56 -142
29 -80 54 -144 56 -142 2 2 -80 236 -183 520 -102 285 -188 515 -190 514 -2
-2 4 -23 12 -47 8 -24 14 -45 12 -47 -2 -2 -23 50 -47 114 -57 157 -115 290
-136 314 -24 27 -49 24 -72 -8z m-181 -440 c-12 -20 -14 -14 -5 12 4 9 9 14
11 11 3 -2 0 -13 -6 -23z m483 -103 c5 -20 3 -19 -8 5 -7 17 -16 41 -20 55 -5
20 -3 19 8 -5 7 -16 16 -41 20 -55z m-520 -4 c-9 -26 -18 -45 -20 -43 -2 2 3
25 12 51 9 26 18 45 20 43 2 -2 -3 -25 -12 -51z m560 -106 c5 -20 3 -19 -8 5
-7 17 -16 41 -20 55 -5 20 -3 19 8 -5 7 -16 16 -41 20 -55z m40 -110 c5 -20 3
-19 -8 5 -7 17 -16 41 -20 55 -5 20 -3 19 8 -5 7 -16 16 -41 20 -55z m-683 -7
c-12 -20 -14 -14 -5 12 4 9 9 14 11 11 3 -2 0 -13 -6 -23z m719 -88 c0 -5 -5
-3 -10 5 -5 8 -10 20 -10 25 0 6 5 3 10 -5 5 -8 10 -19 10 -25z m-779 -72
c-12 -20 -14 -14 -5 12 4 9 9 14 11 11 3 -2 0 -13 -6 -23z m833 -83 c3 -14 -2
-7 -13 15 -10 22 -21 51 -24 65 -4 14 2 7 12 -15 10 -22 22 -51 25 -65z m-913
-141 c-5 -13 -10 -19 -10 -12 -1 15 10 45 15 40 3 -2 0 -15 -5 -28z m-40 -106
c-12 -20 -14 -14 -5 12 4 9 9 14 11 11 3 -2 0 -13 -6 -23z"/>
<path d="M5011 6319 c-6 -18 -9 -34 -7 -36 2 -2 9 10 15 28 6 18 9 34 7 36 -2
2 -9 -10 -15 -28z"/>
<path d="M5200 6338 c0 -14 93 -268 96 -265 3 2 -16 62 -41 133 -42 117 -55
148 -55 132z"/>
<path d="M4531 5009 c-6 -18 -9 -34 -7 -36 2 -2 9 10 15 28 6 18 9 34 7 36 -2
2 -9 -10 -15 -28z"/>
<path d="M4773 4793 c181 -2 473 -2 650 0 177 1 30 2 -328 2 -357 0 -502 -1
-322 -2z"/>
<path d="M4165 3999 c-4 -6 -5 -12 -2 -15 2 -3 7 2 10 11 7 17 1 20 -8 4z"/>
<path d="M4131 3909 c-6 -18 -9 -34 -7 -36 2 -2 9 10 15 28 6 18 9 34 7 36 -2
2 -9 -10 -15 -28z"/>
<path d="M6090 3885 c0 -5 5 -17 10 -25 5 -8 10 -10 10 -5 0 6 -5 17 -10 25
-5 8 -10 11 -10 5z"/>
<path d="M4101 3829 c-6 -18 -9 -34 -7 -36 2 -2 9 10 15 28 6 18 9 34 7 36 -2
2 -9 -10 -15 -28z"/>
</g>
</svg>
